<mxfile host="app.diagrams.net" agent="Mozilla/5.0 (Windows NT 10.0; Win64; x64) AppleWebKit/537.36 (KHTML, like Gecko) Chrome/130.0.0.0 Safari/537.36" version="24.8.3">
  <diagram name="Страница — 1" id="Kdd7FHpQfluU28gKpMz8">
    <mxGraphModel dx="1290" dy="565" grid="1" gridSize="10" guides="1" tooltips="1" connect="1" arrows="1" fold="1" page="1" pageScale="1" pageWidth="827" pageHeight="1169" math="0" shadow="0">
      <root>
        <mxCell id="0" />
        <mxCell id="1" parent="0" />
        <mxCell id="vq08sh9YEy4ZWM3liJOL-1" value="&lt;div&gt;&lt;font style=&quot;font-size: 20px;&quot;&gt;&amp;nbsp;&lt;/font&gt;&lt;/div&gt;" style="rounded=1;whiteSpace=wrap;html=1;arcSize=10;" parent="1" vertex="1">
          <mxGeometry x="80" y="360" width="320" height="600" as="geometry" />
        </mxCell>
        <mxCell id="vq08sh9YEy4ZWM3liJOL-3" value="" style="rounded=1;whiteSpace=wrap;html=1;align=center;" parent="1" vertex="1">
          <mxGeometry x="560" y="360" width="400" height="600" as="geometry" />
        </mxCell>
        <mxCell id="vq08sh9YEy4ZWM3liJOL-4" value="&lt;font style=&quot;font-size: 30px;&quot;&gt;&lt;b&gt;PG&lt;/b&gt;&lt;/font&gt;" style="shape=datastore;whiteSpace=wrap;html=1;" parent="1" vertex="1">
          <mxGeometry x="1120" y="360" width="430" height="600" as="geometry" />
        </mxCell>
        <mxCell id="vq08sh9YEy4ZWM3liJOL-5" value="&lt;font color=&quot;#666666&quot; style=&quot;font-size: 27px;&quot;&gt;Frontend&lt;/font&gt;&lt;div style=&quot;font-size: 27px;&quot;&gt;&lt;font color=&quot;#666666&quot; style=&quot;font-size: 27px;&quot;&gt;(Mobile)&lt;/font&gt;&lt;/div&gt;" style="text;html=1;align=center;verticalAlign=middle;resizable=0;points=[];autosize=1;strokeColor=none;fillColor=none;" parent="1" vertex="1">
          <mxGeometry x="170" y="250" width="130" height="80" as="geometry" />
        </mxCell>
        <mxCell id="vq08sh9YEy4ZWM3liJOL-6" value="&lt;font color=&quot;#666666&quot;&gt;&lt;span style=&quot;font-size: 27px;&quot;&gt;Backend&lt;/span&gt;&lt;/font&gt;&lt;br&gt;&lt;div style=&quot;font-size: 27px;&quot;&gt;&lt;font color=&quot;#666666&quot; style=&quot;font-size: 27px;&quot;&gt;(Server)&lt;/font&gt;&lt;/div&gt;" style="text;html=1;align=center;verticalAlign=middle;resizable=0;points=[];autosize=1;strokeColor=none;fillColor=none;" parent="1" vertex="1">
          <mxGeometry x="697" y="250" width="130" height="80" as="geometry" />
        </mxCell>
        <mxCell id="vq08sh9YEy4ZWM3liJOL-7" value="&lt;font color=&quot;#666666&quot;&gt;&lt;span style=&quot;font-size: 27px;&quot;&gt;Реляционная БД&lt;/span&gt;&lt;/font&gt;&lt;div&gt;&lt;font color=&quot;#666666&quot;&gt;&lt;span style=&quot;font-size: 27px;&quot;&gt;(PostgreSQL)&lt;/span&gt;&lt;/font&gt;&lt;/div&gt;" style="text;html=1;align=center;verticalAlign=middle;resizable=0;points=[];autosize=1;strokeColor=none;fillColor=none;" parent="1" vertex="1">
          <mxGeometry x="1215" y="250" width="240" height="80" as="geometry" />
        </mxCell>
        <mxCell id="vq08sh9YEy4ZWM3liJOL-8" value="&lt;span style=&quot;background-color: initial;&quot;&gt;&lt;font style=&quot;font-size: 20px;&quot;&gt;&lt;div&gt;Я как пользователь сайта детских психологов хочу иметь возможность оставить заявку на консультацию к специалисту,&lt;/div&gt;&lt;div&gt;чтобы сократить время коммуникации.&lt;/div&gt;&lt;/font&gt;&lt;/span&gt;" style="text;whiteSpace=wrap;html=1;" parent="1" vertex="1">
          <mxGeometry x="405" y="70" width="910" height="70" as="geometry" />
        </mxCell>
        <mxCell id="vq08sh9YEy4ZWM3liJOL-9" value="&lt;font color=&quot;#666666&quot;&gt;&lt;span style=&quot;font-size: 27px;&quot;&gt;A&lt;/span&gt;&lt;/font&gt;" style="text;html=1;align=center;verticalAlign=middle;resizable=0;points=[];autosize=1;strokeColor=none;fillColor=none;" parent="1" vertex="1">
          <mxGeometry x="210" y="190" width="40" height="50" as="geometry" />
        </mxCell>
        <mxCell id="vq08sh9YEy4ZWM3liJOL-10" value="&lt;font color=&quot;#666666&quot;&gt;&lt;span style=&quot;font-size: 27px;&quot;&gt;B&lt;/span&gt;&lt;/font&gt;" style="text;html=1;align=center;verticalAlign=middle;resizable=0;points=[];autosize=1;strokeColor=none;fillColor=none;" parent="1" vertex="1">
          <mxGeometry x="740" y="190" width="40" height="50" as="geometry" />
        </mxCell>
        <mxCell id="vq08sh9YEy4ZWM3liJOL-11" value="&lt;font color=&quot;#666666&quot;&gt;&lt;span style=&quot;font-size: 27px;&quot;&gt;C&lt;/span&gt;&lt;/font&gt;" style="text;html=1;align=center;verticalAlign=middle;resizable=0;points=[];autosize=1;strokeColor=none;fillColor=none;" parent="1" vertex="1">
          <mxGeometry x="1315" y="190" width="40" height="50" as="geometry" />
        </mxCell>
        <mxCell id="vq08sh9YEy4ZWM3liJOL-12" value="1" style="html=1;shadow=0;dashed=0;align=center;verticalAlign=middle;shape=mxgraph.arrows2.twoWayArrow;dy=0.65;dx=22;fontStyle=1" parent="1" vertex="1">
          <mxGeometry x="400" y="650" width="160" height="40" as="geometry" />
        </mxCell>
        <mxCell id="vq08sh9YEy4ZWM3liJOL-13" value="2" style="html=1;shadow=0;dashed=0;align=center;verticalAlign=middle;shape=mxgraph.arrows2.twoWayArrow;dy=0.65;dx=22;fontStyle=1" parent="1" vertex="1">
          <mxGeometry x="960" y="650" width="160" height="40" as="geometry" />
        </mxCell>
        <mxCell id="vq08sh9YEy4ZWM3liJOL-14" value="&lt;font style=&quot;font-size: 23px;&quot;&gt;https&lt;/font&gt;" style="text;html=1;align=center;verticalAlign=middle;resizable=0;points=[];autosize=1;strokeColor=none;fillColor=none;" parent="1" vertex="1">
          <mxGeometry x="445" y="610" width="70" height="40" as="geometry" />
        </mxCell>
        <mxCell id="vq08sh9YEy4ZWM3liJOL-15" value="&lt;span style=&quot;font-size: 23px;&quot;&gt;TCP/IP&lt;/span&gt;" style="text;html=1;align=center;verticalAlign=middle;resizable=0;points=[];autosize=1;strokeColor=none;fillColor=none;" parent="1" vertex="1">
          <mxGeometry x="990" y="610" width="100" height="40" as="geometry" />
        </mxCell>
        <mxCell id="vq08sh9YEy4ZWM3liJOL-16" value="&lt;font style=&quot;font-size: 21px;&quot;&gt;A - фронтенд (мобильное приложение)&lt;/font&gt;&lt;div style=&quot;font-size: 21px;&quot;&gt;&lt;font style=&quot;font-size: 21px;&quot;&gt;B - бэкенд/сервер&lt;/font&gt;&lt;/div&gt;&lt;div style=&quot;font-size: 21px;&quot;&gt;&lt;font style=&quot;font-size: 21px;&quot;&gt;C - Реляционная база данных, PG&lt;/font&gt;&lt;/div&gt;" style="text;html=1;align=left;verticalAlign=middle;resizable=0;points=[];autosize=1;strokeColor=none;fillColor=none;" parent="1" vertex="1">
          <mxGeometry x="80" y="1050" width="410" height="90" as="geometry" />
        </mxCell>
        <mxCell id="vq08sh9YEy4ZWM3liJOL-17" value="&lt;br&gt;&lt;div&gt;&lt;span style=&quot;font-size: 21px;&quot;&gt;1 - протокол взаимодействия https&lt;/span&gt;&lt;br&gt;&lt;/div&gt;&lt;div&gt;&lt;span style=&quot;font-size: 21px;&quot;&gt;2 - протокол взаимодействия PostgreSQL protocol (TCP/IP)&lt;/span&gt;&lt;span style=&quot;font-size: 21px;&quot;&gt;&lt;br&gt;&lt;/span&gt;&lt;/div&gt;" style="text;html=1;align=left;verticalAlign=middle;resizable=0;points=[];autosize=1;strokeColor=none;fillColor=none;" parent="1" vertex="1">
          <mxGeometry x="911" y="1045" width="600" height="80" as="geometry" />
        </mxCell>
      </root>
    </mxGraphModel>
  </diagram>
</mxfile>
